<svg xmlns="http://www.w3.org/2000/svg" width="360" height="91" fill="none" viewBox="0 0 360 91"><path fill="#292D35" d="M113.954.347h6.649L127.495 22h-6.038l-1.312-4.24h-5.764L113.1 22h-6.069L113.954.347Zm5.246 13.449-1.922-7.624-2.012 7.624h3.934ZM130.514 22V.347h5.947v16.468h9.82V22h-15.767Zm19.06 0V.347h5.947v16.468h9.82V22h-15.767Zm41.668-5.185V22H175.81V.347h15.157V5.53h-9.21v3.05h7.868V13.4h-7.868v3.415h9.485ZM199.619.347l3.873 8.844 3.965-8.844h6.465l-7.472 14.486V22h-5.916v-7.228L193.184.347h6.435Zm32.572 16.468V22h-15.432V.347h15.157V5.53h-9.21v3.05h7.868V13.4h-7.868v3.415h9.485Zm17.099-9.393-.519-.305a12.433 12.433 0 0 0-1.372-.67 14.16 14.16 0 0 0-1.86-.702 6.814 6.814 0 0 0-1.983-.305c-.508 0-.925.081-1.25.244-.325.162-.488.437-.488.823 0 .366.163.66.488.884.325.224.783.427 1.372.61.61.183 1.332.407 2.166.671 1.342.407 2.5.875 3.476 1.403.976.529 1.729 1.21 2.257 2.044.529.813.793 1.9.793 3.263 0 1.301-.234 2.399-.701 3.294a5.732 5.732 0 0 1-1.891 2.104 8.434 8.434 0 0 1-2.653 1.159c-.976.223-1.973.335-2.989.335a18.57 18.57 0 0 1-3.263-.305 24.91 24.91 0 0 1-3.264-.884 18.132 18.132 0 0 1-2.897-1.342l2.562-5.215.61.366c.406.244.945.518 1.616.823.671.305 1.413.58 2.227.824a8.859 8.859 0 0 0 2.5.366c.651 0 1.098-.082 1.342-.244.265-.183.397-.417.397-.702 0-.427-.224-.752-.671-.976-.448-.244-1.037-.467-1.769-.67a239.84 239.84 0 0 1-2.379-.763c-1.261-.427-2.297-.905-3.111-1.433-.813-.55-1.413-1.19-1.799-1.922-.386-.752-.579-1.657-.579-2.714 0-1.606.376-2.948 1.128-4.026a7.078 7.078 0 0 1 2.958-2.44 9.46 9.46 0 0 1 3.995-.853c1.058 0 2.074.132 3.05.396a17.77 17.77 0 0 1 2.775.915c.875.366 1.637.712 2.288 1.037l-2.562 4.91Zm-119.068 50.76c-1.647 0-3.142-.304-4.484-.914a11.35 11.35 0 0 1-3.476-2.5 11.947 11.947 0 0 1-2.227-3.539 11.296 11.296 0 0 1-.762-4.086c0-1.444.274-2.816.823-4.117a11.349 11.349 0 0 1 2.288-3.477 10.878 10.878 0 0 1 3.507-2.44c1.362-.59 2.846-.884 4.453-.884 1.646 0 3.141.315 4.483.945 1.342.61 2.49 1.444 3.446 2.5a11.385 11.385 0 0 1 2.196 3.569c.528 1.301.793 2.643.793 4.026 0 1.423-.275 2.785-.824 4.086a10.994 10.994 0 0 1-2.287 3.508 11.173 11.173 0 0 1-3.477 2.44c-1.342.589-2.826.884-4.452.884Zm-4.911-10.978c0 .732.102 1.443.305 2.135.204.67.509 1.28.915 1.83.407.528.915.955 1.525 1.28.631.305 1.373.458 2.227.458.853 0 1.596-.163 2.226-.488a4.172 4.172 0 0 0 1.525-1.312c.406-.569.701-1.19.884-1.86a7.432 7.432 0 0 0 0-4.209 5.559 5.559 0 0 0-.915-1.799 4.152 4.152 0 0 0-1.555-1.28c-.63-.306-1.362-.458-2.196-.458-.854 0-1.596.162-2.226.488a4.513 4.513 0 0 0-1.525 1.311 5.513 5.513 0 0 0-.915 1.83 7.847 7.847 0 0 0-.275 2.074Zm25.638.152V58h-5.947V36.347h4.636l8.692 11.01v-11.01h5.947V58h-4.728l-8.6-10.644Zm29.595-11.01 3.873 8.845 3.965-8.844h6.465l-7.471 14.486V58h-5.917v-7.228l-7.35-14.425h6.435Zm25.5 21.837c-1.647 0-3.142-.305-4.484-.915a11.35 11.35 0 0 1-3.476-2.5 11.947 11.947 0 0 1-2.227-3.539 11.296 11.296 0 0 1-.762-4.086c0-1.444.274-2.816.823-4.117a11.349 11.349 0 0 1 2.288-3.477 10.878 10.878 0 0 1 3.507-2.44c1.362-.59 2.846-.884 4.453-.884 1.646 0 3.141.315 4.483.945 1.342.61 2.49 1.444 3.446 2.5a11.366 11.366 0 0 1 2.196 3.569c.528 1.301.793 2.643.793 4.026 0 1.423-.275 2.785-.824 4.086a10.994 10.994 0 0 1-2.287 3.508 11.173 11.173 0 0 1-3.477 2.44c-1.342.589-2.826.884-4.452.884Zm-4.911-10.98c0 .733.102 1.444.305 2.136.204.67.509 1.28.915 1.83.407.528.915.955 1.525 1.28.631.305 1.373.458 2.227.458.854 0 1.596-.163 2.226-.488a4.172 4.172 0 0 0 1.525-1.312c.406-.569.701-1.19.884-1.86a7.397 7.397 0 0 0 .305-2.104c0-.732-.101-1.434-.305-2.105a5.559 5.559 0 0 0-.915-1.799 4.152 4.152 0 0 0-1.555-1.28c-.63-.306-1.362-.458-2.196-.458-.854 0-1.596.162-2.226.488a4.522 4.522 0 0 0-1.525 1.311 5.513 5.513 0 0 0-.915 1.83 7.847 7.847 0 0 0-.275 2.074Zm29.145 10.98c-1.728 0-3.212-.285-4.452-.854-1.24-.57-2.257-1.352-3.05-2.349a9.984 9.984 0 0 1-1.708-3.415 15.022 15.022 0 0 1-.549-4.087V36.347h5.947v11.131c0 .712.071 1.393.214 2.044.142.65.366 1.23.671 1.738.305.508.691.915 1.159 1.22.487.284 1.077.427 1.768.427.712 0 1.312-.143 1.8-.427a3.34 3.34 0 0 0 1.159-1.22 6.16 6.16 0 0 0 .671-1.769c.142-.65.213-1.322.213-2.013V36.347h5.947v11.131c0 1.505-.203 2.908-.61 4.209-.386 1.301-.976 2.44-1.769 3.416-.793.975-1.809 1.738-3.049 2.287-1.22.529-2.674.793-4.362.793Z"/><mask id="mask0_4601_26191" width="146" height="59" x="107" y="0" maskUnits="userSpaceOnUse" style="mask-type:alpha"><path fill="#292D35" d="M113.954.347h6.649L127.495 22h-6.038l-1.312-4.24h-5.764L113.1 22h-6.069L113.954.347Zm5.246 13.449-1.922-7.624-2.012 7.624h3.934ZM130.514 22V.347h5.947v16.468h9.82V22h-15.767Zm19.06 0V.347h5.947v16.468h9.82V22h-15.767Zm41.668-5.185V22H175.81V.347h15.157V5.53h-9.21v3.05h7.868V13.4h-7.868v3.415h9.485ZM199.619.347l3.873 8.844 3.965-8.844h6.465l-7.472 14.486V22h-5.916v-7.228L193.184.347h6.435Zm32.572 16.468V22h-15.432V.347h15.157V5.53h-9.21v3.05h7.868V13.4h-7.868v3.415h9.485Zm17.099-9.393-.519-.305a12.433 12.433 0 0 0-1.372-.67 14.16 14.16 0 0 0-1.86-.702 6.814 6.814 0 0 0-1.983-.305c-.508 0-.925.081-1.25.244-.325.162-.488.437-.488.823 0 .366.163.66.488.884.325.224.783.427 1.372.61.61.183 1.332.407 2.166.671 1.342.407 2.5.875 3.476 1.403.976.529 1.729 1.21 2.257 2.044.529.813.793 1.9.793 3.263 0 1.301-.234 2.399-.701 3.294a5.732 5.732 0 0 1-1.891 2.104 8.434 8.434 0 0 1-2.653 1.159c-.976.223-1.973.335-2.989.335a18.57 18.57 0 0 1-3.263-.305 24.91 24.91 0 0 1-3.264-.884 18.132 18.132 0 0 1-2.897-1.342l2.562-5.215.61.366c.406.244.945.518 1.616.823.671.305 1.413.58 2.227.824a8.859 8.859 0 0 0 2.5.366c.651 0 1.098-.082 1.342-.244.265-.183.397-.417.397-.702 0-.427-.224-.752-.671-.976-.448-.244-1.037-.467-1.769-.67a239.84 239.84 0 0 1-2.379-.763c-1.261-.427-2.297-.905-3.111-1.433-.813-.55-1.413-1.19-1.799-1.922-.386-.752-.579-1.657-.579-2.714 0-1.606.376-2.948 1.128-4.026a7.078 7.078 0 0 1 2.958-2.44 9.46 9.46 0 0 1 3.995-.853c1.058 0 2.074.132 3.05.396a17.77 17.77 0 0 1 2.775.915c.875.366 1.637.712 2.288 1.037l-2.562 4.91Zm-119.068 50.76c-1.647 0-3.142-.304-4.484-.914a11.35 11.35 0 0 1-3.476-2.5 11.947 11.947 0 0 1-2.227-3.539 11.296 11.296 0 0 1-.762-4.086c0-1.444.274-2.816.823-4.117a11.349 11.349 0 0 1 2.288-3.477 10.878 10.878 0 0 1 3.507-2.44c1.362-.59 2.846-.884 4.453-.884 1.646 0 3.141.315 4.483.945 1.342.61 2.49 1.444 3.446 2.5a11.385 11.385 0 0 1 2.196 3.569c.528 1.301.793 2.643.793 4.026 0 1.423-.275 2.785-.824 4.086a10.994 10.994 0 0 1-2.287 3.508 11.173 11.173 0 0 1-3.477 2.44c-1.342.589-2.826.884-4.452.884Zm-4.911-10.978c0 .732.102 1.443.305 2.135.204.67.509 1.28.915 1.83.407.528.915.955 1.525 1.28.631.305 1.373.458 2.227.458.853 0 1.596-.163 2.226-.488a4.172 4.172 0 0 0 1.525-1.312c.406-.569.701-1.19.884-1.86a7.432 7.432 0 0 0 0-4.209 5.559 5.559 0 0 0-.915-1.799 4.152 4.152 0 0 0-1.555-1.28c-.63-.306-1.362-.458-2.196-.458-.854 0-1.596.162-2.226.488a4.513 4.513 0 0 0-1.525 1.311 5.513 5.513 0 0 0-.915 1.83 7.847 7.847 0 0 0-.275 2.074Zm25.638.152V58h-5.947V36.347h4.636l8.692 11.01v-11.01h5.947V58h-4.728l-8.6-10.644Zm29.595-11.01 3.873 8.845 3.965-8.844h6.465l-7.471 14.486V58h-5.917v-7.228l-7.35-14.425h6.435Zm25.5 21.837c-1.647 0-3.142-.305-4.484-.915a11.35 11.35 0 0 1-3.476-2.5 11.947 11.947 0 0 1-2.227-3.539 11.296 11.296 0 0 1-.762-4.086c0-1.444.274-2.816.823-4.117a11.349 11.349 0 0 1 2.288-3.477 10.878 10.878 0 0 1 3.507-2.44c1.362-.59 2.846-.884 4.453-.884 1.646 0 3.141.315 4.483.945 1.342.61 2.49 1.444 3.446 2.5a11.366 11.366 0 0 1 2.196 3.569c.528 1.301.793 2.643.793 4.026 0 1.423-.275 2.785-.824 4.086a10.994 10.994 0 0 1-2.287 3.508 11.173 11.173 0 0 1-3.477 2.44c-1.342.589-2.826.884-4.452.884Zm-4.911-10.98c0 .733.102 1.444.305 2.136.204.67.509 1.28.915 1.83.407.528.915.955 1.525 1.28.631.305 1.373.458 2.227.458.854 0 1.596-.163 2.226-.488a4.172 4.172 0 0 0 1.525-1.312c.406-.569.701-1.19.884-1.86a7.397 7.397 0 0 0 .305-2.104c0-.732-.101-1.434-.305-2.105a5.559 5.559 0 0 0-.915-1.799 4.152 4.152 0 0 0-1.555-1.28c-.63-.306-1.362-.458-2.196-.458-.854 0-1.596.162-2.226.488a4.522 4.522 0 0 0-1.525 1.311 5.513 5.513 0 0 0-.915 1.83 7.847 7.847 0 0 0-.275 2.074Zm29.145 10.98c-1.728 0-3.212-.285-4.452-.854-1.24-.57-2.257-1.352-3.05-2.349a9.984 9.984 0 0 1-1.708-3.415 15.022 15.022 0 0 1-.549-4.087V36.347h5.947v11.131c0 .712.071 1.393.214 2.044.142.65.366 1.23.671 1.738.305.508.691.915 1.159 1.22.487.284 1.077.427 1.768.427.712 0 1.312-.143 1.8-.427a3.34 3.34 0 0 0 1.159-1.22 6.16 6.16 0 0 0 .671-1.769c.142-.65.213-1.322.213-2.013V36.347h5.947v11.131c0 1.505-.203 2.908-.61 4.209-.386 1.301-.976 2.44-1.769 3.416-.793.975-1.809 1.738-3.049 2.287-1.22.529-2.674.793-4.362.793Z"/></mask><g mask="url(#mask0_4601_26191)"><circle cx="253.86" cy="29.067" r="54.8" fill="#F6B400"/></g><path fill="#F6B400" d="M124.739 37.536c.339.704.505 1.405.485 2.079a4.168 4.168 0 0 1-.551 1.942c-.346.615-.858 1.209-1.51 1.74-.659.549-1.452 1.047-2.392 1.5-.928.447-1.824.764-2.664.937-.84.174-1.617.216-2.313.104a4.087 4.087 0 0 1-1.875-.773c-.553-.399-.997-.965-1.336-1.668-.34-.704-.505-1.405-.473-2.085.033-.68.219-1.334.564-1.949a6.308 6.308 0 0 1 1.523-1.746c.659-.548 1.465-1.053 2.392-1.5.927-.447 1.824-.763 2.664-.937.839-.173 1.605-.21 2.301-.097a4.178 4.178 0 0 1 1.862.779c.539.404.979.959 1.323 1.674ZM137.671 31.302c.339.704.505 1.405.485 2.079a4.169 4.169 0 0 1-.551 1.942c-.346.615-.858 1.209-1.51 1.74-.659.549-1.452 1.047-2.392 1.5-.927.447-1.824.763-2.664.937-.839.174-1.617.216-2.313.104a4.087 4.087 0 0 1-1.875-.773c-.552-.399-.997-.965-1.336-1.669-.339-.703-.505-1.404-.473-2.084.033-.68.219-1.334.564-1.949a6.307 6.307 0 0 1 1.523-1.746c.659-.549 1.465-1.053 2.392-1.5.928-.447 1.824-.763 2.664-.937.84-.174 1.605-.21 2.301-.097a4.172 4.172 0 0 1 1.862.779c.539.404.979.959 1.323 1.674ZM135.004 27.657l-1.385-.373a4.807 4.807 0 0 0-3.647.617l-1.67 1.05-1.007-1.537 1.67-1.05c1.586-.997 3.5-1.312 5.255-.887l.018.006 1.403.378-.637 1.796Z"/><path fill="#292D35" d="M54.112 75.138h1.661V86.77h-1.661v-11.63Zm-6.68 11.631h-1.66v-11.63h1.66v11.63Zm6.83-5.184h-6.996v-1.446h6.995v1.446Zm8.532 5.284c-.886 0-1.673-.194-2.36-.582a4.33 4.33 0 0 1-1.628-1.595c-.399-.687-.598-1.462-.598-2.326 0-.875.2-1.65.598-2.326a4.207 4.207 0 0 1 1.629-1.579c.686-.387 1.473-.581 2.359-.581.875 0 1.656.194 2.343.581.698.377 1.24.903 1.628 1.579.399.664.598 1.44.598 2.326 0 .875-.2 1.65-.598 2.326a4.176 4.176 0 0 1-1.628 1.595c-.687.388-1.468.582-2.343.582Zm0-1.396c.565 0 1.069-.127 1.512-.382a2.696 2.696 0 0 0 1.063-1.08c.255-.477.382-1.025.382-1.645 0-.632-.127-1.174-.382-1.628a2.697 2.697 0 0 0-1.063-1.08 2.978 2.978 0 0 0-1.512-.383c-.565 0-1.069.128-1.512.383a2.847 2.847 0 0 0-1.063 1.08c-.266.454-.4.996-.4 1.628 0 .62.134 1.168.4 1.645.265.465.62.825 1.063 1.08.443.255.947.382 1.512.382Zm17.791-7.593c.709 0 1.335.138 1.878.415.542.277.963.698 1.262 1.263.31.565.466 1.28.466 2.143v5.068h-1.595v-4.885c0-.853-.2-1.495-.599-1.927-.398-.432-.958-.648-1.678-.648-.531 0-.997.11-1.395.332a2.277 2.277 0 0 0-.93.98c-.211.432-.317.97-.317 1.612v4.536h-1.595v-4.885c0-.853-.2-1.495-.598-1.927-.387-.432-.947-.648-1.678-.648-.52 0-.98.11-1.38.332a2.277 2.277 0 0 0-.93.98c-.221.432-.332.97-.332 1.612v4.536H69.57v-8.806h1.529v2.343l-.25-.599a3.003 3.003 0 0 1 1.28-1.345c.576-.322 1.246-.482 2.01-.482.842 0 1.568.21 2.177.631.61.41 1.008 1.036 1.196 1.878l-.648-.266c.266-.676.731-1.219 1.396-1.629.665-.41 1.44-.614 2.326-.614Zm10.462 8.989c-.942 0-1.772-.194-2.492-.582a4.263 4.263 0 0 1-1.662-1.595c-.388-.676-.582-1.451-.582-2.326s.189-1.65.565-2.326a4.154 4.154 0 0 1 1.579-1.579c.675-.387 1.434-.581 2.276-.581.853 0 1.606.188 2.26.565a3.929 3.929 0 0 1 1.528 1.595c.377.675.565 1.467.565 2.376 0 .066-.005.144-.016.232 0 .089-.006.172-.017.25h-7.493V81.75h6.662l-.648.399c.011-.565-.105-1.069-.349-1.512a2.59 2.59 0 0 0-1.013-1.03c-.421-.255-.914-.382-1.479-.382-.554 0-1.047.127-1.479.382-.432.243-.77.592-1.013 1.046-.244.444-.366.953-.366 1.53v.265c0 .587.133 1.113.399 1.578.277.455.66.81 1.146 1.064.488.255 1.047.382 1.679.382.52 0 .991-.089 1.412-.266a3.093 3.093 0 0 0 1.13-.797l.88 1.03c-.398.465-.897.82-1.495 1.063-.587.244-1.246.366-1.977.366Zm10.107 3.223a8.055 8.055 0 0 1-2.36-.349c-.753-.221-1.367-.543-1.844-.964l.765-1.23c.41.355.913.632 1.512.832.598.21 1.224.315 1.877.315 1.041 0 1.806-.243 2.293-.73.487-.488.731-1.23.731-2.227v-1.861l.166-1.745-.083-1.76v-2.41h1.512v7.61c0 1.55-.387 2.691-1.163 3.422-.775.731-1.911 1.097-3.406 1.097Zm-.199-3.689c-.853 0-1.618-.177-2.293-.531a4.268 4.268 0 0 1-1.595-1.512c-.388-.643-.582-1.385-.582-2.227 0-.853.194-1.595.582-2.226a4.14 4.14 0 0 1 1.595-1.496c.675-.354 1.44-.531 2.293-.531.753 0 1.44.155 2.06.465.62.3 1.113.764 1.479 1.396.376.631.565 1.429.565 2.392 0 .953-.189 1.745-.565 2.376a3.603 3.603 0 0 1-1.479 1.43 4.54 4.54 0 0 1-2.06.464Zm.182-1.395c.587 0 1.108-.122 1.562-.366a2.682 2.682 0 0 0 1.064-1.013c.265-.432.398-.93.398-1.496 0-.565-.133-1.063-.398-1.495a2.57 2.57 0 0 0-1.064-.997c-.454-.244-.975-.366-1.562-.366-.587 0-1.113.122-1.578.366a2.676 2.676 0 0 0-1.08.997c-.255.432-.382.93-.382 1.495 0 .565.127 1.064.382 1.496.266.432.626.77 1.08 1.013.465.244.991.366 1.578.366Zm7.634 1.761v-8.806h1.529v2.392l-.15-.598a2.707 2.707 0 0 1 1.23-1.395c.576-.322 1.285-.482 2.126-.482v1.545a1.204 1.204 0 0 0-.199-.017h-.166c-.853 0-1.529.255-2.027.765-.499.51-.748 1.246-.748 2.21v4.386h-1.595Zm10.392.1c-.886 0-1.673-.194-2.359-.582a4.33 4.33 0 0 1-1.629-1.595c-.399-.687-.598-1.462-.598-2.326 0-.875.199-1.65.598-2.326a4.208 4.208 0 0 1 1.629-1.579c.686-.387 1.473-.581 2.359-.581.875 0 1.656.194 2.343.581.698.377 1.24.903 1.628 1.579.399.664.598 1.44.598 2.326 0 .875-.199 1.65-.598 2.326a4.176 4.176 0 0 1-1.628 1.595c-.687.388-1.468.582-2.343.582Zm0-1.396c.565 0 1.069-.127 1.512-.382a2.691 2.691 0 0 0 1.063-1.08c.255-.477.382-1.025.382-1.645 0-.632-.127-1.174-.382-1.628a2.693 2.693 0 0 0-1.063-1.08 2.978 2.978 0 0 0-1.512-.383c-.565 0-1.069.128-1.512.383a2.84 2.84 0 0 0-1.063 1.08c-.266.454-.399.996-.399 1.628 0 .62.133 1.168.399 1.645.265.465.62.825 1.063 1.08.443.255.947.382 1.512.382Zm8.393 1.296-3.274-8.806h1.512l2.908 7.975h-.714l3.024-7.975h1.345l2.958 7.975h-.698l2.974-7.975h1.429l-3.29 8.806h-1.528l-2.775-7.278h.465l-2.808 7.278h-1.528Zm17.785-8.89c.72 0 1.351.14 1.894.416a2.97 2.97 0 0 1 1.296 1.263c.31.565.465 1.28.465 2.143v5.068h-1.595v-4.885c0-.853-.21-1.495-.631-1.927-.41-.432-.992-.648-1.745-.648-.565 0-1.058.11-1.479.332-.42.221-.747.548-.98.98-.221.432-.332.97-.332 1.612v4.536h-1.595v-8.806h1.528v2.376l-.249-.632a3.058 3.058 0 0 1 1.329-1.345c.599-.322 1.296-.482 2.094-.482Zm14.376 9.023c-.787 0-1.484-.127-2.094-.382-.609-.255-1.091-.61-1.445-1.064a2.49 2.49 0 0 1-.532-1.578c0-.52.116-.997.349-1.429.233-.432.604-.847 1.113-1.246.51-.41 1.18-.83 2.011-1.263.675-.354 1.202-.665 1.578-.93.388-.266.659-.516.814-.748.167-.244.25-.504.25-.781 0-.377-.133-.681-.399-.914-.266-.244-.648-.365-1.147-.365-.52 0-.93.133-1.229.398-.288.255-.432.593-.432 1.014 0 .21.033.415.1.615.077.188.21.404.398.648.2.232.482.531.848.897l6.147 6.114-.897 1.064-6.53-6.497a9.706 9.706 0 0 1-.914-1.03 3.567 3.567 0 0 1-.481-.897c-.1-.288-.15-.582-.15-.88 0-.522.127-.976.382-1.363a2.548 2.548 0 0 1 1.097-.914c.476-.222 1.03-.332 1.661-.332.587 0 1.097.1 1.529.299.432.188.764.465.997.83.244.355.365.787.365 1.296 0 .443-.11.853-.332 1.23-.21.376-.554.742-1.03 1.096-.476.355-1.119.737-1.927 1.147-.665.343-1.186.665-1.562.964-.377.288-.648.576-.814.864a1.967 1.967 0 0 0-.233.947c0 .365.105.692.316.98.221.277.526.493.914.648.398.155.858.233 1.379.233.742 0 1.412-.16 2.01-.482.598-.321 1.097-.803 1.495-1.446.41-.642.709-1.44.898-2.392l1.279.415c-.221 1.119-.604 2.066-1.146 2.841a5.411 5.411 0 0 1-1.978 1.778c-.786.41-1.672.615-2.658.615Zm12.779-.133v-11.63h4.536c1.019 0 1.888.16 2.608.481.72.321 1.274.786 1.662 1.396.388.609.582 1.334.582 2.176 0 .842-.194 1.568-.582 2.177-.388.598-.942 1.063-1.662 1.396-.72.32-1.589.481-2.608.481h-3.622l.747-.78v4.303h-1.661Zm1.661-4.137-.747-.831h3.572c1.063 0 1.866-.227 2.409-.681.554-.454.831-1.097.831-1.928 0-.83-.277-1.473-.831-1.927-.543-.454-1.346-.681-2.409-.681h-3.572l.747-.831v6.879Zm9.773 4.137v-8.806h1.528v2.392l-.149-.598a2.701 2.701 0 0 1 1.229-1.395c.576-.322 1.285-.482 2.127-.482v1.545a1.204 1.204 0 0 0-.199-.017h-.166c-.853 0-1.529.255-2.028.765-.498.51-.747 1.246-.747 2.21v4.386h-1.595Zm10.392.1c-.887 0-1.673-.194-2.36-.582a4.328 4.328 0 0 1-1.628-1.595c-.399-.687-.598-1.462-.598-2.326 0-.875.199-1.65.598-2.326a4.206 4.206 0 0 1 1.628-1.579c.687-.387 1.473-.581 2.36-.581.875 0 1.656.194 2.342.581a4.064 4.064 0 0 1 1.629 1.579c.398.664.598 1.44.598 2.326 0 .875-.2 1.65-.598 2.326a4.178 4.178 0 0 1-1.629 1.595c-.686.388-1.467.582-2.342.582Zm0-1.396c.564 0 1.068-.127 1.512-.382a2.698 2.698 0 0 0 1.063-1.08c.255-.477.382-1.025.382-1.645 0-.632-.127-1.174-.382-1.628a2.699 2.699 0 0 0-1.063-1.08 2.983 2.983 0 0 0-1.512-.383c-.565 0-1.069.128-1.512.383a2.843 2.843 0 0 0-1.064 1.08c-.266.454-.399.996-.399 1.628 0 .62.133 1.168.399 1.645.266.465.62.825 1.064 1.08.443.255.947.382 1.512.382Zm10.48 1.396c-.753 0-1.418-.139-1.994-.416a3.043 3.043 0 0 1-1.329-1.263c-.31-.575-.465-1.296-.465-2.16v-5.067h1.595v4.885c0 .864.205 1.512.615 1.944.42.432 1.008.648 1.761.648.554 0 1.035-.111 1.445-.333.41-.232.726-.564.947-.996.222-.444.333-.975.333-1.596v-4.552h1.595v8.806h-1.512v-2.376l.249.631a3.081 3.081 0 0 1-1.296 1.363c-.576.321-1.224.482-1.944.482Zm11.178 0c-.853 0-1.617-.189-2.293-.565a4.153 4.153 0 0 1-1.578-1.579c-.388-.675-.582-1.462-.582-2.36 0-.896.194-1.677.582-2.342a4.152 4.152 0 0 1 1.578-1.578c.676-.377 1.44-.565 2.293-.565.742 0 1.412.166 2.011.498.598.332 1.074.831 1.428 1.496.366.664.549 1.495.549 2.492 0 .997-.177 1.828-.532 2.492-.343.665-.814 1.169-1.412 1.512-.598.332-1.28.499-2.044.499Zm.133-1.396c.554 0 1.052-.127 1.495-.382a2.694 2.694 0 0 0 1.064-1.08c.266-.477.399-1.025.399-1.645 0-.632-.133-1.174-.399-1.628a2.695 2.695 0 0 0-1.064-1.08 2.943 2.943 0 0 0-1.495-.383c-.565 0-1.069.128-1.512.383a2.84 2.84 0 0 0-1.063 1.08c-.266.454-.399.996-.399 1.628 0 .62.133 1.168.399 1.645.265.465.62.825 1.063 1.08.443.255.947.382 1.512.382Zm3.007 1.296v-2.376l.1-2.044-.166-2.043V74.44h1.595V86.77h-1.529Zm12.698.2a9.687 9.687 0 0 1-2.675-.366c-.853-.255-1.54-.582-2.061-.98l.914-2.028a6.91 6.91 0 0 0 1.761.881c.687.222 1.38.332 2.077.332.532 0 .959-.05 1.28-.15.332-.11.576-.26.731-.448a.99.99 0 0 0 .232-.648.854.854 0 0 0-.365-.73c-.244-.19-.565-.339-.964-.45a14.6 14.6 0 0 0-1.329-.332c-.476-.11-.958-.243-1.446-.399a6.171 6.171 0 0 1-1.312-.598 3.007 3.007 0 0 1-.98-.963c-.244-.4-.366-.909-.366-1.529 0-.665.177-1.268.532-1.811.365-.554.908-.992 1.628-1.313.731-.332 1.645-.498 2.742-.498a8.87 8.87 0 0 1 2.16.266c.708.166 1.334.42 1.877.764l-.831 2.044a6.779 6.779 0 0 0-1.628-.682 5.792 5.792 0 0 0-1.595-.232c-.521 0-.947.06-1.279.183-.333.121-.571.282-.715.481-.144.189-.216.41-.216.665 0 .3.122.543.366.731.243.177.565.321.963.432.399.11.837.222 1.313.332.487.111.969.239 1.445.383.488.144.931.337 1.33.581.398.244.72.565.963.964.255.399.383.903.383 1.512 0 .653-.183 1.252-.549 1.794-.365.543-.914.98-1.645 1.313-.72.332-1.634.498-2.741.498Zm6.591-.2v-8.94h2.592v8.94h-2.592Zm1.296-10.185c-.476 0-.864-.139-1.163-.416a1.348 1.348 0 0 1-.449-1.03c0-.41.15-.753.449-1.03.299-.277.687-.415 1.163-.415s.864.133 1.163.398c.299.255.449.588.449.997 0 .432-.15.792-.449 1.08-.288.277-.676.416-1.163.416Zm9.135 1.113c.709 0 1.34.144 1.894.432.565.277 1.008.709 1.329 1.296.321.576.482 1.318.482 2.226v5.118h-2.592V82.05c0-.72-.161-1.251-.482-1.595-.31-.343-.753-.515-1.329-.515-.41 0-.781.089-1.113.266a1.804 1.804 0 0 0-.765.78c-.177.355-.265.81-.265 1.363v4.42h-2.592v-8.94h2.475v2.477l-.465-.748a3.311 3.311 0 0 1 1.379-1.38c.598-.32 1.28-.481 2.044-.481Zm10.44 9.205c-.964 0-1.823-.194-2.576-.582a4.551 4.551 0 0 1-1.778-1.645c-.421-.697-.631-1.49-.631-2.376 0-.897.21-1.689.631-2.376a4.433 4.433 0 0 1 1.778-1.628c.753-.399 1.612-.598 2.576-.598.941 0 1.761.2 2.459.598a3.555 3.555 0 0 1 1.545 1.678l-2.011 1.08c-.232-.42-.526-.73-.88-.93-.344-.2-.72-.3-1.13-.3-.443 0-.842.1-1.196.3-.355.2-.637.482-.848.847-.199.366-.299.809-.299 1.33 0 .52.1.963.299 1.329.211.365.493.648.848.847.354.2.753.3 1.196.3.41 0 .786-.095 1.13-.283.354-.2.648-.515.88-.947l2.011 1.096a3.66 3.66 0 0 1-1.545 1.678c-.698.388-1.518.582-2.459.582Zm9.819 0c-1.019 0-1.916-.2-2.692-.598-.764-.399-1.357-.942-1.778-1.629-.42-.697-.631-1.49-.631-2.376 0-.897.205-1.689.615-2.376a4.398 4.398 0 0 1 1.711-1.628c.72-.399 1.534-.598 2.443-.598.875 0 1.661.188 2.359.565a4.081 4.081 0 0 1 1.678 1.595c.41.687.615 1.512.615 2.476 0 .1-.006.216-.017.349l-.033.349h-7.261v-1.513h5.899l-.997.45c0-.466-.094-.87-.283-1.214a1.998 1.998 0 0 0-.781-.797c-.332-.2-.72-.3-1.163-.3-.443 0-.836.1-1.179.3-.333.188-.593.46-.781.814-.189.343-.283.753-.283 1.23v.398c0 .487.105.92.316 1.296.221.366.526.648.914.848.399.188.864.282 1.395.282.477 0 .892-.072 1.247-.216.365-.144.697-.36.997-.648l1.379 1.495c-.41.466-.925.826-1.546 1.08-.62.244-1.334.366-2.143.366Zm10.103-.133v-1.745l4.486-4.237c.355-.32.615-.609.781-.864a2.48 2.48 0 0 0 .333-.697c.066-.21.099-.405.099-.582 0-.465-.16-.82-.482-1.063-.31-.255-.769-.383-1.379-.383-.487 0-.941.095-1.362.283-.41.188-.759.482-1.047.88L278.67 77.1c.444-.665 1.064-1.19 1.861-1.579.798-.387 1.717-.581 2.759-.581.864 0 1.617.144 2.259.432.654.277 1.158.67 1.512 1.18.366.51.549 1.118.549 1.827 0 .377-.05.753-.15 1.13-.089.366-.277.753-.565 1.163-.277.41-.687.87-1.229 1.38l-3.722 3.505-.515-.98h6.563v2.193h-8.79Zm14.885.2c-.953 0-1.806-.233-2.559-.698-.753-.477-1.346-1.164-1.778-2.06-.432-.898-.648-1.984-.648-3.257 0-1.274.216-2.36.648-3.257.432-.897 1.025-1.579 1.778-2.044.753-.476 1.606-.714 2.559-.714.964 0 1.817.238 2.559.714.753.465 1.346 1.147 1.778 2.044.432.897.648 1.983.648 3.257 0 1.273-.216 2.359-.648 3.256-.432.897-1.025 1.584-1.778 2.06-.742.466-1.595.698-2.559.698Zm0-2.277c.454 0 .847-.127 1.18-.382.343-.255.609-.66.797-1.213.2-.554.299-1.268.299-2.143 0-.875-.099-1.59-.299-2.144-.188-.554-.454-.958-.797-1.213a1.885 1.885 0 0 0-1.18-.382 1.93 1.93 0 0 0-1.18.382c-.332.255-.598.66-.797 1.213-.189.554-.283 1.269-.283 2.144 0 .875.094 1.59.283 2.143.199.554.465.958.797 1.213a1.93 1.93 0 0 0 1.18.382Zm8.022 2.077V76.135l1.163 1.163h-3.489v-2.16h5.018V86.77h-2.692Zm4.612 0v-1.745l4.487-4.237c.354-.32.614-.609.78-.864.167-.254.277-.487.333-.697.066-.21.099-.405.099-.582 0-.465-.16-.82-.481-1.063-.311-.255-.77-.383-1.379-.383-.488 0-.942.095-1.363.283-.41.188-.759.482-1.047.88l-1.96-1.262c.443-.665 1.063-1.19 1.861-1.579.797-.387 1.717-.581 2.758-.581.864 0 1.617.144 2.259.432.654.277 1.158.67 1.512 1.18.366.51.549 1.118.549 1.827 0 .377-.05.753-.15 1.13-.088.366-.277.753-.565 1.163-.277.41-.686.87-1.229 1.38l-3.722 3.505-.515-.98h6.563v2.193h-8.79Z"/></svg>