<svg xmlns="http://www.w3.org/2000/svg" width="21" height="21" viewBox="0 0 21 21" fill="none">
  <path d="M5.09444 8.88785C5.17778 8.88785 5.27222 8.90266 5.37778 8.93229C5.48148 8.96192 5.58704 8.99618 5.69444 9.03507C5.80185 9.07396 5.90556 9.11655 6.00556 9.16285C6.10741 9.20729 6.20093 9.24618 6.28611 9.27951C6.23426 9.28507 6.18056 9.29155 6.125 9.29896C6.06944 9.30451 6.01574 9.30729 5.96389 9.30729C5.85278 9.30729 5.75185 9.2897 5.66111 9.25451C5.56852 9.21933 5.48148 9.17859 5.4 9.13229C5.32037 9.08785 5.24259 9.04711 5.16667 9.01007C5.09259 8.97488 5.02315 8.95729 4.95833 8.95729C4.89167 8.95729 4.83241 8.97026 4.78056 8.99618C4.7287 9.02211 4.67685 9.05174 4.625 9.08507C4.625 9.05914 4.60185 9.04618 4.55556 9.04618C4.60185 8.99988 4.68704 8.96192 4.81111 8.93229C4.93519 8.90266 5.02963 8.88785 5.09444 8.88785ZM6.41111 9.32951C6.67963 9.32951 6.92407 9.37488 7.14444 9.46563C7.0537 9.49711 6.96296 9.52488 6.87222 9.54896C6.77963 9.57118 6.68519 9.58229 6.58889 9.58229C6.45741 9.58229 6.33981 9.56933 6.23611 9.5434C6.26944 9.49155 6.30185 9.45729 6.33333 9.44063C6.36667 9.42396 6.39259 9.38692 6.41111 9.32951ZM10.25 0.265625C11.1685 0.265625 12.0519 0.385995 12.9 0.626736C13.75 0.867477 14.5444 1.20451 15.2833 1.63785C16.0222 2.07118 16.6981 2.5934 17.3111 3.20451C17.9222 3.81748 18.4444 4.4934 18.8778 5.23229C19.3111 5.97118 19.6481 6.76563 19.8889 7.61563C20.1296 8.46377 20.25 9.34711 20.25 10.2656C20.25 11.1841 20.1296 12.0675 19.8889 12.9156C19.6481 13.7656 19.3111 14.5601 18.8778 15.299C18.4444 16.0378 17.9222 16.7138 17.3111 17.3267C16.6981 17.9378 16.0222 18.4601 15.2833 18.8934C14.5444 19.3267 13.75 19.6638 12.9 19.9045C12.0519 20.1453 11.1685 20.2656 10.25 20.2656C9.33148 20.2656 8.44815 20.1453 7.6 19.9045C6.75 19.6638 5.95556 19.3267 5.21667 18.8934C4.47778 18.4601 3.80185 17.9378 3.18889 17.3267C2.57778 16.7138 2.05556 16.0378 1.62222 15.299C1.18889 14.5601 0.851852 13.7656 0.611111 12.9156C0.37037 12.0675 0.25 11.1841 0.25 10.2656C0.25 9.34711 0.37037 8.46377 0.611111 7.61563C0.851852 6.76563 1.18889 5.97118 1.62222 5.23229C2.05556 4.4934 2.57778 3.81748 3.18889 3.20451C3.80185 2.5934 4.47778 2.07118 5.21667 1.63785C5.95556 1.20451 6.75 0.867477 7.6 0.626736C8.44815 0.385995 9.33148 0.265625 10.25 0.265625ZM17.6917 5.68507C17.6009 5.54248 17.5093 5.40451 17.4167 5.27118C17.3259 5.13785 17.2324 5.00544 17.1361 4.87396C17.1213 4.93322 17.1028 4.97581 17.0806 5.00174C17.0583 5.02766 17.0472 5.086 17.0472 5.17674C17.0472 5.236 17.0713 5.2934 17.1194 5.34896C17.1694 5.40451 17.2287 5.45451 17.2972 5.49896C17.3639 5.54525 17.4333 5.58507 17.5056 5.6184C17.5778 5.64988 17.6398 5.67211 17.6917 5.68507ZM17.1056 4.84618L17.0167 4.72951C17.0167 4.78137 17.0074 4.81655 16.9889 4.83507H17.0472C17.0731 4.83507 17.0926 4.83877 17.1056 4.84618ZM10.25 19.0156C10.9926 19.0156 11.7185 18.9212 12.4278 18.7323C13.137 18.5434 13.8093 18.2749 14.4444 17.9267C15.0796 17.5786 15.6657 17.1554 16.2028 16.6573C16.7398 16.1591 17.2102 15.6008 17.6139 14.9823C17.5287 14.7878 17.4472 14.5897 17.3694 14.3878C17.2917 14.186 17.2528 13.9777 17.2528 13.7628C17.2528 13.5277 17.2639 13.3369 17.2861 13.1906C17.3083 13.0443 17.3296 12.9193 17.35 12.8156C17.3685 12.7101 17.3833 12.6138 17.3944 12.5267C17.4037 12.4378 17.3917 12.3388 17.3583 12.2295C17.3269 12.1184 17.2704 11.9851 17.1889 11.8295C17.1074 11.6721 16.9889 11.4703 16.8333 11.224C16.8389 11.1777 16.85 11.1156 16.8667 11.0378C16.8833 10.9601 16.8944 10.8786 16.9 10.7934C16.9074 10.7082 16.9093 10.6286 16.9056 10.5545C16.9019 10.4786 16.887 10.4184 16.8611 10.374C16.6926 10.3536 16.5148 10.3175 16.3278 10.2656C16.1426 10.2138 15.9815 10.136 15.8444 10.0323L15.9056 9.98229C15.8204 10.0027 15.7352 10.0304 15.65 10.0656C15.5648 10.1008 15.4815 10.1351 15.4 10.1684C15.3204 10.1999 15.238 10.2277 15.1528 10.2517C15.0676 10.274 14.9796 10.2851 14.8889 10.2851L14.7333 10.2656L14.7611 10.1962C14.6704 10.2221 14.5713 10.2554 14.4639 10.2962C14.3565 10.3351 14.2574 10.3545 14.1667 10.3545C14.1019 10.3545 14.0074 10.3314 13.8833 10.2851C13.7593 10.2388 13.6333 10.1832 13.5056 10.1184C13.3796 10.0536 13.2694 9.98229 13.175 9.90451C13.0806 9.82674 13.0333 9.75174 13.0333 9.67951L13.0528 9.65174C13.0194 9.611 12.9769 9.57489 12.925 9.5434C12.8731 9.51007 12.8231 9.47766 12.775 9.44618C12.725 9.41285 12.6843 9.37674 12.6528 9.33785C12.6194 9.29896 12.6028 9.25359 12.6028 9.20174L12.7111 9.11285L12.4861 9.08507L12.4083 8.79063C12.4213 8.82396 12.4519 8.83692 12.5 8.82951C12.55 8.82396 12.5843 8.811 12.6028 8.79063L12.2528 8.60451L12.4972 7.97951C12.4046 7.64248 12.3833 7.38229 12.4333 7.19896C12.4815 7.01748 12.5676 6.86655 12.6917 6.74618C12.8157 6.62581 12.9602 6.50822 13.125 6.3934C13.2917 6.28044 13.45 6.12303 13.6 5.92118L13.5694 5.80174L14.2139 5.02118L14.3611 5.00174C14.5444 5.00174 14.75 4.9934 14.9778 4.97674C15.2056 4.96192 15.4361 4.9397 15.6694 4.91007C15.9046 4.88044 16.1361 4.84803 16.3639 4.81285C16.5917 4.77581 16.8 4.73507 16.9889 4.69063C16.7796 4.44248 16.5593 4.20729 16.3278 3.98507C16.0981 3.7647 15.8565 3.55359 15.6028 3.35174C15.5306 3.37766 15.4407 3.4147 15.3333 3.46285C15.2259 3.51285 15.1231 3.57211 15.025 3.64063C14.9269 3.70914 14.8435 3.78507 14.775 3.8684C14.7083 3.95359 14.675 4.04155 14.675 4.13229L14.7333 4.3184C14.6148 4.50729 14.4843 4.62581 14.3417 4.67396C14.1991 4.72396 14.0509 4.74988 13.8972 4.75174C13.7435 4.75544 13.587 4.75451 13.4278 4.74896C13.2685 4.74155 13.1139 4.77026 12.9639 4.83507L12.8083 4.50451L12.9556 3.93785L12.7889 3.6934L14.4778 3.16563C14.4074 2.98414 14.2889 2.84711 14.1222 2.75451C13.9556 2.66377 13.7778 2.6184 13.5889 2.6184V2.52118L14.1361 2.43229C13.5306 2.13414 12.9009 1.90637 12.2472 1.74896C11.5935 1.5934 10.9278 1.51563 10.25 1.51563C9.68333 1.51563 9.12315 1.57118 8.56945 1.68229C8.01574 1.7934 7.48056 1.95451 6.96389 2.16563C6.44722 2.37674 5.95093 2.63507 5.475 2.94063C4.99907 3.24803 4.55926 3.59988 4.15556 3.99618C4.32593 3.99618 4.45833 4.0397 4.55278 4.12674C4.64722 4.21563 4.73148 4.31007 4.80556 4.41007C4.87963 4.51192 4.95926 4.60637 5.04444 4.6934C5.12963 4.78229 5.24352 4.82674 5.38611 4.82674L5.54167 4.71007L5.52222 4.4934L5.84444 4.03507L5.59167 3.31285C5.625 3.29248 5.67593 3.26007 5.74444 3.21563C5.81111 3.16933 5.86482 3.14618 5.90556 3.14618C6.1 3.14618 6.25093 3.15637 6.35833 3.17674C6.46574 3.19525 6.55556 3.23229 6.62778 3.28785C6.69815 3.3434 6.76667 3.4184 6.83333 3.51285C6.89815 3.60729 6.98889 3.72951 7.10556 3.87951L7.45833 3.60451C7.52315 3.63044 7.6287 3.67488 7.775 3.73785C7.9213 3.79896 8.06574 3.87025 8.20833 3.95174C8.35278 4.03322 8.47963 4.11933 8.58889 4.21007C8.7 4.30266 8.75556 4.38785 8.75556 4.46563C8.75556 4.56192 8.71852 4.6397 8.64444 4.69896C8.56852 4.75822 8.475 4.80729 8.36389 4.84618C8.25463 4.88507 8.13333 4.91563 8 4.93785C7.86667 4.96192 7.74444 4.98692 7.63333 5.01285C7.52222 5.03877 7.42778 5.07303 7.35 5.11562C7.27222 5.15637 7.23333 5.21007 7.23333 5.27674L7.8 5.46007C7.66852 5.57118 7.52685 5.67396 7.375 5.7684C7.2213 5.86285 7.06667 5.94618 6.91111 6.0184L6.95 6.18229L6.05 6.53507V6.80729L5.98333 6.83785L6.03056 6.49618L5.99167 6.48507C5.94722 6.48507 5.91944 6.49525 5.90833 6.51563C5.89907 6.536 5.89815 6.55914 5.90556 6.58507C5.91111 6.611 5.91852 6.63692 5.92778 6.66285C5.93889 6.68877 5.94074 6.70822 5.93333 6.72118L5.80556 6.65174L5.825 6.69063C5.825 6.711 5.83704 6.74063 5.86111 6.77951C5.88333 6.8184 5.90926 6.85544 5.93889 6.89063C5.96852 6.92766 5.99444 6.961 6.01667 6.99063C6.03889 7.0184 6.05 7.03229 6.05 7.03229C6.05 7.05266 6.03519 7.07211 6.00556 7.09063C5.97778 7.111 5.94722 7.12581 5.91389 7.13507C5.88056 7.14618 5.85463 7.15451 5.83611 7.16007C5.81574 7.16748 5.81574 7.17118 5.83611 7.17118C5.92685 7.17118 5.94444 7.17766 5.88889 7.19063C5.83333 7.20359 5.7537 7.236 5.65 7.28785C5.5463 7.3397 5.44352 7.41563 5.34167 7.51563C5.24167 7.61748 5.19167 7.75914 5.19167 7.94063C5.19167 8.05174 5.1963 8.15914 5.20556 8.26285C5.21482 8.3684 5.21019 8.47581 5.19167 8.58507C5.10093 8.33877 4.96389 8.14988 4.78056 8.0184C4.59907 7.88877 4.37778 7.82396 4.11667 7.82396L3.69722 7.86285L3.90278 7.99896C3.79167 7.986 3.67593 7.97303 3.55556 7.96007C3.43519 7.94711 3.31667 7.94618 3.2 7.95729C3.08148 7.96655 2.96852 7.99248 2.86111 8.03507C2.7537 8.07766 2.65833 8.14433 2.575 8.23507L2.51667 8.67396C2.51667 8.88137 2.56389 9.05266 2.65833 9.18785C2.75278 9.32118 2.91019 9.38785 3.13056 9.38785C3.32685 9.38785 3.51944 9.35637 3.70833 9.2934C3.89537 9.23229 4.08056 9.16563 4.26389 9.0934C4.20463 9.236 4.13981 9.37488 4.06944 9.51007C3.99722 9.6434 3.94444 9.78414 3.91111 9.93229L4.03889 9.9934C4.19444 9.88785 4.33796 9.87118 4.46944 9.9434C4.59907 10.0156 4.72593 10.1193 4.85 10.2545C4.97407 10.3916 5.10093 10.5332 5.23056 10.6795C5.36019 10.8277 5.5 10.9304 5.65 10.9878L5.31944 11.1628L4.53611 10.724C4.54352 10.7369 4.55185 10.7666 4.56111 10.8128C4.57037 10.8573 4.56574 10.8666 4.54722 10.8406L4.19444 10.2462C3.98704 10.2388 3.76389 10.2045 3.525 10.1434C3.28796 10.0823 3.05278 10.0045 2.81944 9.91007C2.58426 9.81563 2.35741 9.70822 2.13889 9.58785C1.92222 9.46748 1.73241 9.34526 1.56944 9.22118L1.5 10.2656C1.5 11.0601 1.60741 11.8351 1.82222 12.5906C2.03704 13.3462 2.34167 14.0554 2.73611 14.7184C3.1287 15.3832 3.60556 15.9906 4.16667 16.5406C4.72593 17.0906 5.3537 17.5545 6.05 17.9323C6.01852 17.7953 6.01574 17.6582 6.04167 17.5212C6.06759 17.3841 6.10185 17.2471 6.14444 17.1101C6.18704 16.9749 6.2287 16.8369 6.26944 16.6962C6.31204 16.5554 6.33333 16.4175 6.33333 16.2823C6.33333 16.073 6.30093 15.8527 6.23611 15.6212C6.1713 15.3916 6.09167 15.161 5.99722 14.9295C5.90278 14.698 5.8037 14.4684 5.7 14.2406C5.59444 14.0128 5.50463 13.7962 5.43056 13.5906C5.35648 13.3851 5.30648 13.1962 5.28056 13.024C5.25278 12.8517 5.27222 12.7008 5.33889 12.5712L5.19167 12.5017C5.23056 12.411 5.28426 12.323 5.35278 12.2378C5.4213 12.1527 5.48796 12.0666 5.55278 11.9795C5.61759 11.8925 5.67315 11.8027 5.71944 11.7101C5.76389 11.6193 5.78611 11.5221 5.78611 11.4184C5.78611 11.3536 5.77222 11.2832 5.74444 11.2073C5.71482 11.1332 5.69352 11.0666 5.68056 11.0073L5.88611 11.0573C5.99537 10.8036 6.1463 10.6295 6.33889 10.5351C6.53148 10.4406 6.76759 10.3934 7.04722 10.3934C7.0787 10.3934 7.14722 10.4082 7.25278 10.4378C7.35648 10.4656 7.46667 10.499 7.58333 10.5378C7.70185 10.5786 7.81482 10.6166 7.92222 10.6517C8.02963 10.6869 8.10556 10.711 8.15 10.724C8.15 10.7703 8.17778 10.8017 8.23333 10.8184C8.28889 10.8332 8.31667 10.8536 8.31667 10.8795L8.29722 10.9601C8.31574 10.9656 8.36296 10.9897 8.43889 11.0323C8.51296 11.0749 8.59074 11.1221 8.67222 11.174C8.7537 11.2258 8.8287 11.2777 8.89722 11.3295C8.96574 11.3814 9.01019 11.4175 9.03056 11.4378C9.14722 11.4378 9.30833 11.4767 9.51389 11.5545C9.71759 11.6323 9.93704 11.7314 10.1722 11.8517C10.4056 11.9721 10.6444 12.1119 10.8889 12.2712C11.1333 12.4323 11.3537 12.5953 11.55 12.7601C11.7444 12.9267 11.9056 13.0897 12.0333 13.249C12.1593 13.4082 12.2222 13.5499 12.2222 13.674L11.8917 14.0267C11.9176 14.3582 11.8926 14.6128 11.8167 14.7906C11.7426 14.9703 11.6324 15.1156 11.4861 15.2267C11.3398 15.3378 11.1667 15.4351 10.9667 15.5184C10.7685 15.6036 10.5593 15.7147 10.3389 15.8517C10.3389 15.9814 10.3056 16.123 10.2389 16.2767C10.1741 16.4286 10.0917 16.5721 9.99167 16.7073C9.88982 16.8406 9.77222 16.9527 9.63889 17.0434C9.50556 17.1341 9.37037 17.1795 9.23333 17.1795L8.825 16.8684C8.83796 16.8814 8.83611 16.9054 8.81944 16.9406C8.80278 16.9758 8.78796 16.9804 8.775 16.9545C8.83982 17.0786 8.85648 17.2221 8.825 17.3851C8.79167 17.548 8.73611 17.7138 8.65833 17.8823C8.58056 18.0527 8.49259 18.2138 8.39444 18.3656C8.2963 18.5193 8.20833 18.6453 8.13056 18.7434C8.48241 18.8341 8.83426 18.9017 9.18611 18.9462C9.53796 18.9925 9.89259 19.0156 10.25 19.0156Z" fill="#616161" style="fill:#616161;fill:color(display-p3 0.3804 0.3804 0.3804);fill-opacity:1;"/>
</svg>