<svg xmlns="http://www.w3.org/2000/svg" width="44" height="17" viewBox="0 0 44 17" fill="none">
  <g clip-path="url(#clip0_1_85)">
    <path fill-rule="evenodd" clip-rule="evenodd" d="M13.0955 14.8941H20.8669L24.4098 1.63696H13.0955C9.43838 1.63696 6.46695 4.60839 6.46695 8.26553C6.46695 11.9227 9.43838 14.8941 13.0955 14.8941Z" fill="white" style="fill:white;fill-opacity:1;"/>
    <path fill-rule="evenodd" clip-rule="evenodd" d="M30.467 0.265625H13.0955C8.63838 0.265625 5.09552 3.80848 5.09552 8.26563C5.09552 12.7228 8.63838 16.2656 13.0955 16.2656H30.467C34.9241 16.2656 38.467 12.7228 38.467 8.26563C38.467 3.80848 34.8098 0.265625 30.467 0.265625ZM6.46695 8.26563C6.46695 4.60848 9.43838 1.63705 13.0955 1.63705H24.4098L20.8669 14.8942H13.0955C9.43838 14.8942 6.46695 11.9228 6.46695 8.26563Z" fill="#0066FF" style="fill:#0066FF;fill:color(display-p3 0.0000 0.4000 1.0000);fill-opacity:1;"/>
    <path d="M32.7527 4.83696C32.9813 5.06553 32.9813 5.52267 32.7527 5.75124L30.3527 8.26553L32.867 10.7798C33.0956 11.0084 33.0956 11.4655 32.867 11.6941C32.6384 11.9227 32.1813 11.9227 31.9527 11.6941L29.4384 9.17981L26.9241 11.6941C26.6955 11.9227 26.2384 11.9227 26.0098 11.6941C25.7813 11.4655 25.7813 11.0084 26.0098 10.7798L28.4098 8.26553L25.8955 5.75124C25.667 5.52267 25.667 5.06553 25.8955 4.83696C26.1241 4.60838 26.5813 4.60838 26.8098 4.83696L29.3241 7.35124L31.8384 4.83696C32.067 4.60838 32.5241 4.60838 32.7527 4.83696Z" fill="white" style="fill:white;fill-opacity:1;"/>
    <path d="M19.1527 4.95146C19.3813 5.18003 19.4955 5.63717 19.267 5.86574L14.467 11.4657C14.3527 11.58 14.2384 11.6943 14.1241 11.6943C13.8955 11.8086 13.5527 11.8086 13.3241 11.58L10.8098 9.06574C10.5813 8.83717 10.5813 8.38003 10.8098 8.15146C11.0384 7.92289 11.4955 7.92289 11.7241 8.15146L13.7813 10.0943L18.1241 4.95146C18.3527 4.72289 18.8098 4.72289 19.1527 4.95146Z" fill="#0066FF" style="fill:#0066FF;fill:color(display-p3 0.0000 0.4000 1.0000);fill-opacity:1;"/>
  </g>
  <defs>
    <clipPath id="clip0_1_85">
      <rect width="43" height="16" fill="white" style="fill:white;fill-opacity:1;" transform="translate(0.28125 0.265625)"/>
    </clipPath>
  </defs>
</svg>