<svg xmlns="http://www.w3.org/2000/svg" width="17" height="17" viewBox="0 0 17 17" fill="none">
  <path d="M4.08701 15.7186C3.87813 15.7186 3.68257 15.6793 3.50035 15.6008C3.31812 15.5238 3.15812 15.4171 3.02035 15.2808C2.88109 15.146 2.77294 14.9875 2.6959 14.8052C2.61738 14.623 2.57812 14.4275 2.57812 14.2186V3.12524C2.57812 2.91636 2.61738 2.7208 2.6959 2.53858C2.77294 2.35636 2.87961 2.19784 3.0159 2.06302C3.15072 1.92673 3.30924 1.82006 3.49146 1.74302C3.67368 1.6645 3.86924 1.62524 4.07813 1.62524C4.20257 1.62524 4.32775 1.6408 4.45368 1.67191C4.57813 1.70302 4.69516 1.74969 4.80479 1.81191L14.7581 7.35858C14.9981 7.49487 15.1855 7.68006 15.3203 7.91413C15.4552 8.14821 15.5226 8.4008 15.5226 8.67191C15.5226 8.94747 15.4566 9.20154 15.3248 9.43413C15.1915 9.66524 15.0026 9.84895 14.7581 9.98524L4.81146 15.5319C4.70331 15.5941 4.58627 15.6408 4.46035 15.6719C4.3359 15.703 4.21146 15.7186 4.08701 15.7186ZM14.5226 8.67191C14.5226 8.58302 14.4996 8.49858 14.4537 8.41858C14.4063 8.3371 14.3433 8.27561 14.2648 8.23413L4.32035 2.68747C4.24775 2.64598 4.16701 2.62524 4.07813 2.62524C3.94331 2.62524 3.82627 2.67487 3.72701 2.77413C3.62775 2.87339 3.57813 2.99043 3.57813 3.12524V14.2186C3.57813 14.3549 3.62775 14.4719 3.72701 14.5697C3.82627 14.6689 3.94331 14.7186 4.07813 14.7186C4.16701 14.7186 4.24775 14.6978 4.32035 14.6564L14.2648 9.10969C14.3433 9.06821 14.4063 9.00673 14.4537 8.92524C14.4996 8.84524 14.5226 8.7608 14.5226 8.67191Z" fill="white" style="fill:white;fill-opacity:1;"/>
</svg>