<svg xmlns="http://www.w3.org/2000/svg" width="200" height="100" fill="none" viewBox="0 0 200 100"><path fill="#FFB6E9" fill-rule="evenodd" d="M0 13c0-.552.45-.996 1-1.041 5.83-.48 10.478-5.13 10.959-10.96C12.004.45 12.448 0 13 0h174c.552 0 .996.45 1.041 1 .481 5.83 5.129 10.478 10.959 10.959.551.045 1 .489 1 1.041v78c0 .552-.45.993-.998 1.062a8.004 8.004 0 0 0-6.94 6.94c-.069.548-.51.998-1.062.998H9c-.552 0-.993-.45-1.062-.998a8.004 8.004 0 0 0-6.94-6.94C.45 91.993 0 91.552 0 91V13Z" clip-rule="evenodd"/><g clip-path="url(#clip0_1443_7615)"><path stroke="#FFCEF0" stroke-linecap="round" stroke-opacity=".6" stroke-width="8" d="M-74 151c25.523-35.085 50.178-78.098 89.84-103.522 8.455-5.419 22.72-10.816 26.185 1.428 4.022 14.212-.062 30.017 7.29 43.774 9.321 17.439 37.315-14.825 43.98-20.936 17.889-16.403 31.938-38.127 52.211-52.338 12.842-9.003 27.74-3.531 30.653 10.263 2.876 13.619-1.992 27.428-2.979 40.988-.914 12.548.732 22.633 6.82 33.85"/></g><defs><clipPath id="clip0_1443_7615"><path fill="#fff" d="M0 0h200v100H0z"/></clipPath></defs></svg>