<svg xmlns="http://www.w3.org/2000/svg" width="200" height="100" fill="none" viewBox="0 0 200 100"><g clip-path="url(#clip0_1443_7289)"><path fill="#D6A9F9" fill-rule="evenodd" d="M0 13c0-.552.45-.996 1-1.041 5.83-.48 10.478-5.13 10.959-10.96C12.004.45 12.448 0 13 0h174c.552 0 .996.45 1.041 1 .481 5.83 5.129 10.478 10.959 10.959.551.045 1 .489 1 1.041v78c0 .552-.45.993-.998 1.062a8.004 8.004 0 0 0-6.94 6.94c-.069.548-.51.998-1.062.998H9c-.552 0-.993-.45-1.062-.998a8.004 8.004 0 0 0-6.94-6.94C.45 91.993 0 91.552 0 91V13Z" clip-rule="evenodd"/><g clip-path="url(#clip1_1443_7289)"><path stroke="#E3C6FA" stroke-linecap="round" stroke-opacity=".6" stroke-width="8" d="M-34.999 2.5c11.02 7.597 69.518 39.555 82.967 50.93 9.967 8.43 19.921 16.872 29.237 25.76 8.4 8.015 35.659 31.47 36.901 48.51.975 13.366-17.843 16.3-29.007 18.235-42.675 7.398-68.64-3.561-81.06-21.651-9.238-13.453-11.913-36.16-5.186-58.792C3.64 49.387 14.249 34.069 41.158 16.174c40.244-26.764 80.921-42.27 115.998-51.364 44.567-11.553 64.969 3.712 74.651 21.844 4.89 9.156 8.838 28.683 4.151 43.594-1.69 5.378-4.254 11.736-11.174 18.52-17.305 16.964-42.069 16.625-49.213 16.917-69.225 2.826-68.936-50.083-37.166-110.376 16.407-31.136 45.15-59.916 86.811-93.263 27.315-21.866 54.457-39.948 83.146-60.44"/></g></g><defs><clipPath id="clip0_1443_7289"><path fill="#fff" d="M0 0h200v100H0z"/></clipPath><clipPath id="clip1_1443_7289"><path fill="#fff" d="M0 0h200v100H0z"/></clipPath></defs></svg>