<svg id="common_cog" data-name="common/cog" xmlns="http://www.w3.org/2000/svg" width="16" height="16" viewBox="0 0 16 16">
	<path id="Subtract" d="M1.086,1.864l1.427.684a4,4,0,0,1,1.493-.863L4.128.107a5.555,5.555,0,0,1,2.17,0L6.42,1.685a4,4,0,0,1,1.493.863L9.34,1.864a5.494,5.494,0,0,1,1.086,1.879L9.12,4.638a4.036,4.036,0,0,1,0,1.725l1.307.895A5.494,5.494,0,0,1,9.34,9.136L7.913,8.452a4,4,0,0,1-1.493.863L6.3,10.893a5.555,5.555,0,0,1-2.17,0L4.007,9.315a4,4,0,0,1-1.493-.863l-1.427.684A5.494,5.494,0,0,1,0,7.257l1.307-.895a4.036,4.036,0,0,1,0-1.725L0,3.743A5.494,5.494,0,0,1,1.086,1.864ZM5.213,7a1.5,1.5,0,1,0-1.5-1.5A1.5,1.5,0,0,0,5.213,7Z" transform="translate(2.787 2.5)" fill="none" stroke="#fff" stroke-width="1"/>
</svg>
