<svg width="72" height="72" fill="none">
    <path fill-rule="evenodd" clip-rule="evenodd" d="M37.2 53.4a1.2 1.2 0 0 0-1.2-1.2h-1.2a1.2 1.2 0 0 0-1.2 1.2v2.864c0 .649-.517 1.18-1.165 1.21-2.134.1-4.263.31-6.38.627l-6.611.992a2.4 2.4 0 0 0-2.044 2.373v.633a.6.6 0 0 0 .6.6h34.8a.6.6 0 0 0 .6-.6v-.633a2.4 2.4 0 0 0-2.044-2.373l-6.61-.992a62.958 62.958 0 0 0-6.38-.627 1.218 1.218 0 0 1-1.166-1.21v-2.865Z" fill="url(#a)"/>
    <path d="M18.6 60.739c0-.508.359-.943.86-1.028 2.56-.433 10.299-1.66 15.94-1.66 5.642 0 13.38 1.227 15.94 1.66.501.085.86.52.86 1.028a.262.262 0 0 1-.303.261c-1.775-.293-10.927-1.76-16.497-1.76S20.678 60.708 18.903 61a.262.262 0 0 1-.303-.261Z" fill="url(#b)"/>
    <path d="M63 12H9a1.8 1.8 0 0 0-1.8 1.8v37.8A1.8 1.8 0 0 0 9 53.4h54a1.8 1.8 0 0 0 1.8-1.8V13.8A1.8 1.8 0 0 0 63 12Z" fill="url(#c)"/>
    <path d="M63 12H9a1.8 1.8 0 0 0-1.8 1.8v37.8A1.8 1.8 0 0 0 9 53.4h54a1.8 1.8 0 0 0 1.8-1.8V13.8A1.8 1.8 0 0 0 63 12Z" fill="url(#d)"/>
    <path fill-rule="evenodd" clip-rule="evenodd" d="M9 12.6h54a1.2 1.2 0 0 1 1.2 1.2v36.6H7.8V13.8A1.2 1.2 0 0 1 9 12.6ZM7.2 50.4V13.8A1.8 1.8 0 0 1 9 12h54a1.8 1.8 0 0 1 1.8 1.8V51.6a1.8 1.8 0 0 1-1.8 1.8H9a1.8 1.8 0 0 1-1.8-1.8v-1.2Z" fill="url(#e)"/>
    <path d="M35.4 52.8c.994 0 1.8-.403 1.8-.9s-.806-.9-1.8-.9-1.8.403-1.8.9.806.9 1.8.9Z" fill="url(#f)"/>
    <defs>
        <radialGradient id="a" cx="0" cy="0" r="1" gradientUnits="userSpaceOnUse" gradientTransform="rotate(118.526 10.484 39.65) scale(55.1579 46.2871)">
            <stop stop-color="#802600"/>
            <stop offset=".333" stop-color="#6F181D"/>
            <stop offset=".667" stop-color="#5B1333"/>
            <stop offset="1" stop-color="#391945"/>
        </radialGradient>
        <radialGradient id="b" cx="0" cy="0" r="1" gradientUnits="userSpaceOnUse" gradientTransform="rotate(158.116 18.871 31.457) scale(32.7275 42.219)">
            <stop stop-color="#99421D"/>
            <stop offset=".333" stop-color="#99161D"/>
            <stop offset=".667" stop-color="#7D1845"/>
            <stop offset="1" stop-color="#59216E"/>
        </radialGradient>
        <radialGradient id="d" cx="0" cy="0" r="1" gradientUnits="userSpaceOnUse" gradientTransform="matrix(0 25.9571 -25.8545 0 38.618 23.829)">
            <stop stop-color="#1C0E20" stop-opacity="0"/>
            <stop offset="1" stop-color="#1C0E20"/>
        </radialGradient>
        <radialGradient id="e" cx="0" cy="0" r="1" gradientUnits="userSpaceOnUse" gradientTransform="matrix(-38.39981 27.60018 -26.16063 -36.39699 54 20.194)">
            <stop stop-color="#EF7744"/>
            <stop offset=".333" stop-color="#E50914"/>
            <stop offset=".667" stop-color="#A70D53"/>
            <stop offset="1" stop-color="#792A95"/>
        </radialGradient>
        <radialGradient id="f" cx="0" cy="0" r="1" gradientUnits="userSpaceOnUse" gradientTransform="rotate(135 7.626 33.243) scale(4.58735)">
            <stop stop-color="#FFDCCC"/>
            <stop offset=".333" stop-color="#FFBDC0"/>
            <stop offset=".667" stop-color="#F89DC6"/>
            <stop offset="1" stop-color="#E4A1FA"/>
        </radialGradient>
        <linearGradient id="c" x1="10.473" y1="14.957" x2="56.175" y2="51.481" gradientUnits="userSpaceOnUse">
            <stop stop-color="#99161D"/>
            <stop offset=".245" stop-color="#CA005B"/>
            <stop offset=".347" stop-color="#FF479A"/>
            <stop offset=".469" stop-color="#CC3CFF"/>
            <stop offset=".736" stop-color="#BC1A22"/>
            <stop offset="1" stop-color="#C94FF5"/>
        </linearGradient>
    </defs>
</svg>
