<svg width="72" height="72" fill="none">
    <path d="m24.05 36.602 9.55 9.788-15.797 10.473s-1.914.835-4.178-1.6c-2.264-2.434-1.502-4.025-1.502-4.025L24.05 36.602Z" fill="url(#a)"/>
    <path d="M25.034 34.2 36 46.15l-10.938 7.653s-3.233 1.294-6.963-2.787c-3.73-4.081-2.18-6.507-2.18-6.507l9.115-10.31Z" fill="url(#b)"/>
    <path d="m39 13.02 20.1 20.659-26.568 16.735s-3.786-.159-8.134-4.924c-4.348-4.766-2.988-9.68-2.988-9.68L39 13.02Z" fill="url(#c)"/>
    <path d="M57.67 15.352c5.434 5.929 6.316 13.936 1.969 17.885-4.347 3.949-12.276 2.344-17.71-3.586-5.434-5.929-6.315-13.936-1.968-17.885 4.347-3.949 12.276-2.343 17.71 3.586Z" fill="url(#d)"/>
    <path d="M58.379 31.255c-3.567 3.248-10.165 1.827-14.737-3.175-4.572-5.002-5.387-11.69-1.82-14.938 3.566-3.248 10.164-1.827 14.736 3.175 4.572 5.002 5.387 11.69 1.82 14.938Z" fill="url(#e)"/>
    <path opacity=".85" d="M59.678 28.823c.898-4.645-.024-8.23-3.518-12.203-3.494-3.974-8.81-5.754-12.38-3.86-4.409 2.338 4.593.836 9.678 6.821 4.368 5.143 5.394 13.52 6.22 9.242Z" fill="url(#f)"/>
    <path opacity=".4" d="M50.398 25.245c.057 1.479-1.105 2.523-2.595 2.332-1.49-.191-2.744-1.545-2.801-3.024-.057-1.479 1.105-2.522 2.595-2.331 1.49.19 2.744 1.544 2.8 3.023Z" fill="url(#g)"/>
    <path opacity=".6" d="M36.922 21.004 26.426 34.363c-.096 2.097 1.864 5.19 3.607 6.471L41.234 29.91c-1.634-1.71-4.275-5.808-4.312-8.906Z" fill="url(#h)"/>
    <path fill-rule="evenodd" clip-rule="evenodd" d="m20.058 9.602 1.421 2.117L24 11.065l-1.642 1.962 1.42 2.117-2.436-.904-1.642 1.962.137-2.521-2.437-.905 2.52-.653.138-2.521Zm38.718 43.2.186 3.666 3.438.95-3.323 1.317.187 3.667-2.24-2.854-3.323 1.316 1.939-3.08-2.24-2.853 3.438.95 1.938-3.08ZM15.206 24.21l.67-3.208-2.397 2.194-2.794-1.64 1.313 2.997L9.6 26.748l3.209-.343 1.312 2.997.67-3.209L18 25.85l-2.794-1.64Z" fill="url(#i)"/>
    <defs>
        <radialGradient id="a" cx="0" cy="0" r="1" gradientUnits="userSpaceOnUse" gradientTransform="rotate(135 11.571 23.949) scale(34.9134)">
            <stop stop-color="#99421D"/>
            <stop offset=".333" stop-color="#99161D"/>
            <stop offset=".667" stop-color="#7D1845"/>
            <stop offset="1" stop-color="#59216E"/>
        </radialGradient>
        <radialGradient id="b" cx="0" cy="0" r="1" gradientUnits="userSpaceOnUse" gradientTransform="matrix(-31.49998 31.49998 -31.48598 -31.48598 42.594 27.3)">
            <stop stop-color="#EF7744"/>
            <stop offset=".333" stop-color="#E50914"/>
            <stop offset=".667" stop-color="#A70D53"/>
            <stop offset="1" stop-color="#792A95"/>
        </radialGradient>
        <radialGradient id="c" cx="0" cy="0" r="1" gradientUnits="userSpaceOnUse" gradientTransform="rotate(135 15.122 23.314) scale(31.8127)">
            <stop stop-color="#FB540D"/>
            <stop offset=".333" stop-color="#E50914"/>
            <stop offset=".667" stop-color="#A70D53"/>
            <stop offset="1" stop-color="#792A95"/>
        </radialGradient>
        <radialGradient id="d" cx="0" cy="0" r="1" gradientUnits="userSpaceOnUse" gradientTransform="rotate(134.326 25.74 19.498) scale(24.0433 24.0367)">
            <stop stop-color="#FFDCCC"/>
            <stop offset=".333" stop-color="#FFBDC0"/>
            <stop offset=".667" stop-color="#F89DC6"/>
            <stop offset="1" stop-color="#E4A1FA"/>
        </radialGradient>
        <radialGradient id="e" cx="0" cy="0" r="1" gradientUnits="userSpaceOnUse" gradientTransform="rotate(141.875 22.39 19.643) scale(9.87138 12.8159)">
            <stop offset=".307" stop-color="#F89DC6"/>
            <stop offset=".645" stop-color="#E75094"/>
            <stop offset="1" stop-color="#59216E"/>
        </radialGradient>
        <radialGradient id="f" cx="0" cy="0" r="1" gradientUnits="userSpaceOnUse" gradientTransform="rotate(135 24.67 19.357) scale(13.1522)">
            <stop stop-color="#fff"/>
            <stop offset="1" stop-color="#fff" stop-opacity="0"/>
        </radialGradient>
        <radialGradient id="g" cx="0" cy="0" r="1" gradientUnits="userSpaceOnUse" gradientTransform="rotate(131.079 19.395 22.681) scale(5.08644 6.006)">
            <stop stop-color="#fff"/>
            <stop offset="1" stop-color="#fff" stop-opacity="0"/>
        </radialGradient>
        <radialGradient id="h" cx="0" cy="0" r="1" gradientUnits="userSpaceOnUse" gradientTransform="rotate(137.622 12.79 21.715) scale(13.5764)">
            <stop stop-color="#FFA984"/>
            <stop offset="1" stop-color="#F7636B" stop-opacity="0"/>
        </radialGradient>
        <linearGradient id="i" x1="44.65" y1="27.902" x2="24.25" y2="48.302" gradientUnits="userSpaceOnUse">
            <stop stop-color="#EF7744"/>
            <stop offset=".333" stop-color="#E50914"/>
            <stop offset=".667" stop-color="#A70D53"/>
            <stop offset="1" stop-color="#792A95"/>
        </linearGradient>
    </defs>
</svg>
