<svg xmlns="http://www.w3.org/2000/svg" width="240" height="90" fill="none" viewBox="0 0 240 90"><path fill="#292D35" fill-rule="evenodd" d="M54.894 17.269c-6.285 2.929-6.764 11.357-.778 14.406 2.633 1.375 7.542 1.733 12.15 1.016 2.694-.478 2.813-.538 2.813-2.51 0-2.033-.06-2.033-1.616-1.435-2.873 1.135-9.277.956-11.132-.24-.898-.537-1.617-1.314-1.617-1.613 0-.359 3.113-.598 7.782-.598h7.78v-1.973c0-2.271-1.735-5.38-3.89-6.754-2.394-1.554-8.44-1.734-11.492-.3Zm9.277 3.407c.719.478 1.317 1.315 1.317 1.793 0 .658-1.077.837-5.387.837-2.932 0-5.386-.239-5.386-.478 0-.658 1.795-2.271 2.992-2.69 1.796-.658 5.148-.418 6.464.538Zm86.009-4.303c-3.771 1.434-5.686 3.945-5.686 7.591 0 5.978 3.651 8.907 11.073 8.907 7.183 0 11.073-2.989 11.073-8.488 0-3.168-1.676-6.037-4.19-7.353-2.693-1.374-9.337-1.733-12.27-.657Zm27.836-5.022c0 .698 0 1.124.207 1.385.327.409 1.166.409 3.324.409 2.933 0 3.891.239 5.387 1.554 1.915 1.614 3.412 1.554 4.01-.06.838-2.152-4.788-5.08-9.636-5.08-3.233 0-3.292 0-3.292 1.793Zm-8.319 17.993c-3.412-4.902-1.377-10.76 4.549-12.971 2.993-1.136 9.038-.717 11.971.777 3.052 1.554 4.489 4.423 4.19 8.13-.419 5.02-4.07 7.59-10.834 7.59-4.669 0-8.32-1.314-9.876-3.526Zm-67.096-9.803c0-1.793.659-2.271 3.592-2.87 5.327-1.015 10.594-.238 12.928 1.914 1.317 1.255 1.437 1.733 1.437 7.83v6.456h-2.035c-1.138 0-2.155-.3-2.275-.658-.179-.538-.838-.538-2.514.06-1.317.418-3.95.598-6.165.478-4.369-.299-6.165-1.614-6.165-4.602 0-3.228 3.352-4.902 11.313-5.799l3.89-.418-1.496-1.195c-1.496-1.196-4.01-1.196-10.235-.06-2.155.358-2.275.299-2.275-1.136Zm6.584 9.743c3.532 0 7.183-1.315 7.183-2.63 0-.777-.659-.956-3.113-.896-4.548.06-7.062.896-7.062 2.33 0 1.017.419 1.196 2.992 1.196Zm-79.01-4.483v8.07h6.883c8.26 0 10.774-.777 11.372-3.467.42-2.152-.419-4.065-2.035-4.603-.546-.163-.843-.252-.89-.415-.057-.193.24-.49.89-1.139 1.497-1.494 1.437-3.826-.06-5.32-1.077-1.076-1.975-1.195-8.678-1.195h-7.482v8.07Zm11.611-4.722c.54.18.958.897.958 1.494 0 1.017-.479 1.136-4.19 1.136-3.65 0-4.19-.12-4.19-1.076 0-.598.18-1.315.42-1.494.478-.538 5.746-.538 7.002-.06Zm1.856 7.71c0 1.077-.479 1.196-4.609 1.376-3.144.12-4.17.16-4.506-.302-.162-.224-.162-.566-.162-1.073s0-.85.162-1.073c.335-.462 1.362-.423 4.506-.302 4.13.18 4.609.299 4.609 1.375Zm28.074-7.64c-.414-1.031-.718-1.788-.838-2.1-.54-1.256-.42-1.315 1.735-1.315h2.335l2.095 5.2c.175.445.335.857.482 1.235.783 2.019 1.197 3.086 1.631 3.094.487.009.998-1.314 2.084-4.122l.001-.002c.18-.466.376-.972.59-1.52l1.377-3.587h5.327l1.735 4.902c.958 2.69 1.976 4.782 2.155 4.662.24-.12 1.137-2.211 2.095-4.602.898-2.391 1.856-4.603 2.095-4.842.24-.299 1.377-.418 2.574-.299l2.095.18-3.113 7.77-3.112 7.77H89.85l-1.855-4.96c-1.018-2.69-1.975-4.902-2.155-4.902-.18 0-1.137 2.212-2.155 4.961l-1.855 4.902H76.743l-2.693-6.575c-.86-2.18-1.718-4.318-2.334-5.85Zm52.431 4.652v8.07h4.19v-3.288c0-3.168.06-3.287 1.676-3.287 4.31 0 9.098 2.869 9.098 5.44 0 .955.479 1.135 2.454 1.135 2.394 0 2.454-.06 2.095-1.674-.599-2.39-2.274-4.423-4.848-5.858-2.035-1.195-2.095-1.375-1.018-1.673 1.676-.538 4.908-4.304 4.908-5.739 0-.956-.419-1.195-2.095-1.195-1.676 0-2.214.298-2.992 1.793-1.197 2.39-3.053 3.527-6.465 3.945l-2.813.418V16.732h-4.19v8.07Zm68.532 1.313c0-6.396.06-6.516 1.676-7.95 1.556-1.316 2.154-1.435 8.559-1.435h6.823v3.527l-6.105.179c-5.327.18-6.165.299-6.345 1.196-.179.956.419 1.075 5.806 1.075h6.046V26.293h-11.971v6.635l-2.215-.18-2.274-.179v-6.455Z" clip-rule="evenodd"/><g filter="url(#filter1_d_4601_26203)"><path fill="#292D35" d="M16.236 80.144c-5.58 0-9.594-.63-12.024-1.909C1.764 76.957.54 74.204.54 69.939h9.396c0 1.547.63 2.447 1.872 2.718 1.242.27 2.7.395 4.356.395 1.62 0 3.06-.072 4.302-.198 1.242-.125 1.872-.63 1.872-1.511 0-.882-.918-1.386-2.736-1.513a225.54 225.54 0 0 1-6.804-.593c-4.482-.559-7.65-1.404-9.468-2.538C1.494 65.564.576 63.71.576 61.1c0-3.997 1.242-6.607 3.744-7.83 2.484-1.207 6.372-1.819 11.646-1.819 5.274 0 9.162.666 11.7 2.017 2.52 1.35 3.78 4.067 3.78 8.135H22.05c0-1.458-.648-2.322-1.962-2.628-1.314-.288-2.736-.431-4.248-.431-1.728 0-3.222.072-4.464.216-1.242.144-1.872.684-1.872 1.602 0 .935.954 1.457 2.844 1.547 1.89.108 4.104.306 6.642.595 4.806.558 8.1 1.367 9.846 2.43 1.746 1.062 2.628 2.826 2.628 5.31 0 4.23-1.188 6.93-3.582 8.118-2.394 1.188-6.282 1.782-11.646 1.782Z"/></g><g filter="url(#filter2_d_4601_26203)"><path fill="#292D35" d="M32.54 80V51.451h9.396v10.602h11.448V51.451h9.396v28.547h-9.396v-9.683H41.936v9.683H32.54Z"/></g><g filter="url(#filter3_d_4601_26203)"><path fill="#292D35" d="M80.884 80.251c-4.914 0-8.856-1.116-11.844-3.366-3.006-2.25-4.5-5.922-4.5-11.034 0-5.111 1.494-8.783 4.5-11.033 2.988-2.25 6.93-3.366 11.844-3.366s8.856 1.116 11.862 3.366c2.988 2.25 4.482 5.922 4.482 11.034 0 5.111-1.494 8.783-4.482 11.033-3.006 2.25-6.948 3.366-11.862 3.366Zm0-7.127c2.106 0 3.798-.468 5.076-1.386 1.26-.918 1.89-2.88 1.89-5.886 0-3.007-.63-4.987-1.89-5.905-1.278-.918-2.97-1.367-5.076-1.367-2.106 0-3.78.45-5.058 1.367-1.278.918-1.908 2.898-1.908 5.904 0 3.007.63 4.969 1.908 5.886 1.278.919 2.952 1.387 5.058 1.387Z"/></g><g filter="url(#filter4_d_4601_26203)"><path fill="#292D35" d="M98.54 80V51.451h18.612c7.182 0 10.458 3.528 10.458 10.998 0 7.56-3.276 11.034-10.458 11.034h-9.198V80H98.54Zm9.396-13.752h6.966c1.152 0 2.016-.199 2.574-.577.558-.378.846-1.458.846-3.222 0-1.71-.288-2.771-.846-3.167-.558-.396-1.422-.594-2.574-.594h-6.966v7.56Z"/></g><g filter="url(#filter5_d_4601_26203)"><path fill="#292D35" d="M147.54 80V51.451h23.832v7.434h-14.418v2.933h13.77v7.434h-13.77V80h-9.414Z"/></g><g filter="url(#filter6_d_4601_26203)"><path fill="#292D35" d="M190.384 80.251c-4.914 0-8.856-1.116-11.844-3.366-3.006-2.25-4.5-5.922-4.5-11.034 0-5.111 1.494-8.783 4.5-11.033 2.988-2.25 6.93-3.366 11.844-3.366s8.856 1.116 11.862 3.366c2.988 2.25 4.482 5.922 4.482 11.034 0 5.111-1.494 8.783-4.482 11.033-3.006 2.25-6.948 3.366-11.862 3.366Zm0-7.127c2.106 0 3.798-.468 5.076-1.386 1.26-.918 1.89-2.88 1.89-5.886 0-3.007-.63-4.987-1.89-5.905-1.278-.918-2.97-1.367-5.076-1.367-2.106 0-3.78.45-5.058 1.367-1.278.918-1.908 2.898-1.908 5.904 0 3.007.63 4.969 1.908 5.886 1.278.919 2.952 1.387 5.058 1.387Z"/></g><g filter="url(#filter7_d_4601_26203)"><path fill="#292D35" d="M209.54 80V51.451h19.494c3.15 0 5.58.936 7.272 2.79 1.692 1.854 2.538 4.32 2.538 7.361 0 2.952-.9 5.328-2.682 7.11-1.44 1.422-3.384 2.287-5.814 2.575l.288.504 3.456-.63 4.644 8.837h-10.404l-3.96-7.541v-1.063h-5.418V80h-9.414Zm9.414-15.138h7.2c1.998 0 3.294-1.026 3.294-3.096 0-2.088-1.296-3.294-3.294-3.294h-7.2v6.39Z"/></g><defs><filter id="filter1_d_4601_26203" width="33.924" height="34.692" x=".54" y="51.452" color-interpolation-filters="sRGB" filterUnits="userSpaceOnUse"><feFlood flood-opacity="0" result="BackgroundImageFix"/><feColorMatrix in="SourceAlpha" result="hardAlpha" type="matrix" values="0 0 0 0 0 0 0 0 0 0 0 0 0 0 0 0 0 0 127 0"/><feOffset dx="1.5" dy="4.5"/><feGaussianBlur stdDeviation=".75"/><feComposite in2="hardAlpha" operator="out"/><feColorMatrix type="matrix" values="0 0 0 0 0.970833 0 0 0 0 0.934899 0 0 0 0 0.804983 0 0 0 1 0"/><feBlend in2="BackgroundImageFix" mode="normal" result="effect1_dropShadow_4601_26203"/><feBlend in="SourceGraphic" in2="effect1_dropShadow_4601_26203" mode="normal" result="shape"/></filter><filter id="filter2_d_4601_26203" width="36.24" height="37.548" x="31.04" y="51.452" color-interpolation-filters="sRGB" filterUnits="userSpaceOnUse"><feFlood flood-opacity="0" result="BackgroundImageFix"/><feColorMatrix in="SourceAlpha" result="hardAlpha" type="matrix" values="0 0 0 0 0 0 0 0 0 0 0 0 0 0 0 0 0 0 127 0"/><feOffset dx="1.5" dy="6"/><feGaussianBlur stdDeviation="1.5"/><feComposite in2="hardAlpha" operator="out"/><feColorMatrix type="matrix" values="0 0 0 0 0.972549 0 0 0 0 0.933333 0 0 0 0 0.803922 0 0 0 1 0"/><feBlend in2="BackgroundImageFix" mode="normal" result="effect1_dropShadow_4601_26203"/><feBlend in="SourceGraphic" in2="effect1_dropShadow_4601_26203" mode="normal" result="shape"/></filter><filter id="filter3_d_4601_26203" width="38.688" height="37.8" x="62.29" y="51.452" color-interpolation-filters="sRGB" filterUnits="userSpaceOnUse"><feFlood flood-opacity="0" result="BackgroundImageFix"/><feColorMatrix in="SourceAlpha" result="hardAlpha" type="matrix" values="0 0 0 0 0 0 0 0 0 0 0 0 0 0 0 0 0 0 127 0"/><feOffset dx=".75" dy="6"/><feGaussianBlur stdDeviation="1.5"/><feComposite in2="hardAlpha" operator="out"/><feColorMatrix type="matrix" values="0 0 0 0 0.972549 0 0 0 0 0.933333 0 0 0 0 0.803922 0 0 0 1 0"/><feBlend in2="BackgroundImageFix" mode="normal" result="effect1_dropShadow_4601_26203"/><feBlend in="SourceGraphic" in2="effect1_dropShadow_4601_26203" mode="normal" result="shape"/></filter><filter id="filter4_d_4601_26203" width="35.07" height="37.548" x="95.54" y="51.452" color-interpolation-filters="sRGB" filterUnits="userSpaceOnUse"><feFlood flood-opacity="0" result="BackgroundImageFix"/><feColorMatrix in="SourceAlpha" result="hardAlpha" type="matrix" values="0 0 0 0 0 0 0 0 0 0 0 0 0 0 0 0 0 0 127 0"/><feOffset dy="6"/><feGaussianBlur stdDeviation="1.5"/><feComposite in2="hardAlpha" operator="out"/><feColorMatrix type="matrix" values="0 0 0 0 0.972549 0 0 0 0 0.933333 0 0 0 0 0.803922 0 0 0 1 0"/><feBlend in2="BackgroundImageFix" mode="normal" result="effect1_dropShadow_4601_26203"/><feBlend in="SourceGraphic" in2="effect1_dropShadow_4601_26203" mode="normal" result="shape"/></filter><filter id="filter5_d_4601_26203" width="29.832" height="37.548" x="143.79" y="51.452" color-interpolation-filters="sRGB" filterUnits="userSpaceOnUse"><feFlood flood-opacity="0" result="BackgroundImageFix"/><feColorMatrix in="SourceAlpha" result="hardAlpha" type="matrix" values="0 0 0 0 0 0 0 0 0 0 0 0 0 0 0 0 0 0 127 0"/><feOffset dx="-.75" dy="6"/><feGaussianBlur stdDeviation="1.5"/><feComposite in2="hardAlpha" operator="out"/><feColorMatrix type="matrix" values="0 0 0 0 0.972549 0 0 0 0 0.933333 0 0 0 0 0.803922 0 0 0 1 0"/><feBlend in2="BackgroundImageFix" mode="normal" result="effect1_dropShadow_4601_26203"/><feBlend in="SourceGraphic" in2="effect1_dropShadow_4601_26203" mode="normal" result="shape"/></filter><filter id="filter6_d_4601_26203" width="38.688" height="37.8" x="168.04" y="51.452" color-interpolation-filters="sRGB" filterUnits="userSpaceOnUse"><feFlood flood-opacity="0" result="BackgroundImageFix"/><feColorMatrix in="SourceAlpha" result="hardAlpha" type="matrix" values="0 0 0 0 0 0 0 0 0 0 0 0 0 0 0 0 0 0 127 0"/><feOffset dx="-3" dy="6"/><feGaussianBlur stdDeviation="1.5"/><feComposite in2="hardAlpha" operator="out"/><feColorMatrix type="matrix" values="0 0 0 0 0.972549 0 0 0 0 0.933333 0 0 0 0 0.803922 0 0 0 1 0"/><feBlend in2="BackgroundImageFix" mode="normal" result="effect1_dropShadow_4601_26203"/><feBlend in="SourceGraphic" in2="effect1_dropShadow_4601_26203" mode="normal" result="shape"/></filter><filter id="filter7_d_4601_26203" width="35.304" height="37.548" x="203.54" y="51.452" color-interpolation-filters="sRGB" filterUnits="userSpaceOnUse"><feFlood flood-opacity="0" result="BackgroundImageFix"/><feColorMatrix in="SourceAlpha" result="hardAlpha" type="matrix" values="0 0 0 0 0 0 0 0 0 0 0 0 0 0 0 0 0 0 127 0"/><feOffset dx="-3" dy="6"/><feGaussianBlur stdDeviation="1.5"/><feComposite in2="hardAlpha" operator="out"/><feColorMatrix type="matrix" values="0 0 0 0 0.972549 0 0 0 0 0.933333 0 0 0 0 0.803922 0 0 0 1 0"/><feBlend in2="BackgroundImageFix" mode="normal" result="effect1_dropShadow_4601_26203"/><feBlend in="SourceGraphic" in2="effect1_dropShadow_4601_26203" mode="normal" result="shape"/></filter></defs></svg>